<?xml version="1.0" encoding="UTF-8"?>
<svg xmlns="http://www.w3.org/2000/svg" xmlns:xlink="http://www.w3.org/1999/xlink" width="332pt" height="169pt" viewBox="0 0 332 169" version="1.1">
<defs>
<clipPath id="clip1">
  <path d="M 31 20 L 138 20 L 138 149 L 31 149 Z M 31 20 "/>
</clipPath>
<clipPath id="clip2">
  <path d="M 124.667969 113.492188 C 124.65625 112.925781 124.691406 112.351563 124.777344 111.789063 C 125.023438 110.214844 124.324219 109.539063 122.792969 109.515625 C 116.742188 109.414063 111.359375 107.230469 106.265625 104.128906 C 103.40625 102.390625 103.402344 102.421875 101.910156 105.324219 C 101.585938 105.953125 101.179688 106.542969 100.765625 107.121094 C 99.707031 108.609375 100.0625 109.660156 101.554688 110.660156 C 107.40625 114.5625 113.730469 116.996094 120.8125 117.191406 C 124.707031 117.441406 124.757813 117.390625 124.667969 113.492188 Z M 68.457031 109.054688 C 62.019531 106.933594 56.472656 103.566406 53.0625 97.351563 C 50.585938 92.835938 48.726563 88.046875 49.371094 82.886719 C 50.566406 73.328125 55.011719 65.835938 64.105469 61.660156 C 71.679688 58.183594 79.085938 58.285156 86.3125 62.507813 C 89.320313 64.265625 92.085938 66.359375 94.203125 69.230469 C 94.796875 70.03125 95.859375 71.25 96.582031 69.472656 C 97.335938 67.609375 98.339844 65.894531 99.199219 64.097656 C 99.578125 63.300781 99.613281 62.566406 98.957031 61.9375 C 96.75 59.816406 94.703125 57.480469 92.03125 55.945313 C 84.476563 51.609375 76.585938 49.785156 67.761719 51.507813 C 61.945313 52.640625 56.882813 54.921875 52.566406 58.679688 C 43.371094 66.679688 39.226563 76.792969 40.871094 89.117188 C 42.535156 101.589844 49.421875 110.152344 60.503906 115.386719 C 66.03125 117.996094 71.945313 118.71875 78.132813 118.109375 C 86.242188 117.308594 92.960938 114.246094 97.5 107.328125 C 99.824219 103.785156 101.453125 99.917969 102.484375 95.644531 C 104.160156 88.726563 105.269531 81.648438 107.457031 74.886719 C 109.5625 68.367188 112.886719 62.582031 120.109375 60.417969 C 120.953125 60.164063 121.375 59.507813 121.386719 58.636719 C 121.40625 56.851563 121.441406 55.0625 121.375 53.28125 C 121.332031 52.179688 120.839844 51.566406 119.5625 51.953125 C 116.839844 52.777344 114.152344 53.699219 111.714844 55.1875 C 104.472656 59.613281 101.273438 66.777344 99.058594 74.507813 C 96.902344 82.023438 96.078125 89.890625 93.140625 97.214844 C 92.09375 99.828125 90.921875 102.339844 88.953125 104.339844 C 85.011719 108.347656 80.167969 109.949219 74.84375 109.390625 C 72.546875 109.421875 70.425781 109.703125 68.457031 109.054688 Z M 31 53.464844 C 30.992188 51.640625 31.28125 50.636719 33.242188 49.617188 C 36.730469 47.804688 40.089844 45.65625 43.515625 43.667969 C 48.28125 40.90625 53.085938 38.214844 57.851563 35.457031 C 62.304688 32.878906 66.726563 30.246094 71.167969 27.644531 C 73.847656 26.078125 79.976563 22.128906 80.511719 21.675781 C 82.878906 19.65625 84.34375 19.964844 86.546875 21.394531 C 92.296875 25.128906 98.339844 28.40625 104.257813 31.882813 C 109.121094 34.746094 113.945313 37.679688 118.832031 40.5 C 124.453125 43.742188 130.132813 46.890625 135.777344 50.097656 C 137.324219 50.976563 137.351563 52.566406 137.390625 54.050781 C 137.46875 56.90625 137.421875 59.765625 137.425781 62.625 C 137.429688 80.277344 137.433594 97.925781 137.4375 115.578125 C 137.441406 118.40625 136.511719 119.550781 133.964844 120.796875 C 131.4375 122.035156 129.066406 123.597656 126.613281 124.996094 C 122.761719 127.191406 118.886719 129.34375 115.042969 131.554688 C 111.378906 133.664063 107.765625 135.855469 104.097656 137.960938 C 100.550781 140 96.886719 141.847656 93.421875 144.011719 C 91.125 145.449219 88.417969 146.277344 86.609375 148.492188 C 86.097656 149.117188 82.105469 149.179688 81.519531 148.59375 C 78.621094 145.6875 74.816406 144.222656 71.40625 142.132813 C 67.804688 139.925781 64.167969 137.777344 60.519531 135.652344 C 57.042969 133.628906 53.527344 131.679688 50.039063 129.675781 C 45.378906 127 40.695313 124.355469 36.089844 121.585938 C 34.886719 120.863281 33.609375 120.277344 32.4375 119.445313 C 31.167969 118.546875 31 117.609375 31.003906 116.28125 C 31.035156 105.703125 31.023438 95.128906 31.023438 84.550781 C 31.023438 74.191406 31.050781 63.828125 31 53.464844 Z M 31 53.464844 "/>
</clipPath>
<clipPath id="clip3">
  <path d="M 148 51 L 246 51 L 246 92 L 148 92 Z M 148 51 "/>
</clipPath>
<clipPath id="clip4">
  <path d="M 168.839844 63.285156 L 168.839844 82.628906 C 168.839844 83.121094 168.496094 83.398438 167.964844 83.398438 L 167.285156 83.398438 C 166.707031 83.398438 166.433594 83.121094 166.433594 82.542969 L 166.433594 78.824219 C 165.410156 81.988281 162.34375 83.847656 158.679688 83.847656 C 152.886719 83.847656 148.4375 78.996094 148.4375 72.945313 C 148.4375 66.875 152.824219 61.980469 158.679688 61.980469 C 162.429688 61.980469 165.582031 64.035156 166.433594 66.941406 L 166.515625 63.285156 C 166.539063 62.707031 166.773438 62.410156 167.347656 62.410156 L 167.964844 62.410156 C 168.476563 62.410156 168.839844 62.707031 168.839844 63.285156 Z M 166.410156 72.96875 C 166.410156 68.289063 163.238281 64.375 158.679688 64.375 C 154.101563 64.375 150.84375 68.265625 150.84375 72.945313 C 150.84375 77.628906 154.144531 81.453125 158.679688 81.453125 C 163.195313 81.453125 166.410156 77.691406 166.410156 72.96875 Z M 173.792969 82.585938 C 173.792969 83.097656 174.066406 83.355469 174.621094 83.355469 L 175.367188 83.355469 C 175.898438 83.355469 176.15625 83.097656 176.15625 82.585938 L 176.15625 54.800781 C 176.15625 53.945313 176.113281 53.089844 176.046875 52.386719 C 175.984375 51.894531 175.773438 51.617188 175.261719 51.617188 L 174.601563 51.617188 C 174.109375 51.617188 173.792969 51.894531 173.792969 52.386719 Z M 181.171875 90.8125 L 181.171875 63.15625 C 181.171875 62.582031 181.46875 62.28125 182.066406 62.28125 L 182.703125 62.28125 C 183.324219 62.28125 183.640625 62.582031 183.640625 63.15625 L 183.640625 65.828125 C 184.386719 64.570313 186.410156 61.789063 191.414063 61.789063 C 196.972656 61.789063 201.425781 66.640625 201.425781 72.710938 C 201.425781 78.761719 196.972656 83.632813 191.414063 83.632813 C 187.476563 83.632813 184.941406 81.429688 183.640625 78.695313 L 183.640625 90.8125 C 183.640625 91.328125 183.324219 91.648438 182.726563 91.648438 L 182.109375 91.648438 C 181.511719 91.648438 181.171875 91.328125 181.171875 90.8125 Z M 183.492188 72.691406 C 183.492188 77.390625 187.050781 81.238281 191.246094 81.238281 C 195.460938 81.238281 198.953125 77.390625 198.953125 72.691406 C 198.953125 67.988281 195.460938 64.140625 191.246094 64.140625 C 187.050781 64.140625 183.492188 67.988281 183.492188 72.691406 Z M 204.929688 82.605469 C 204.929688 83.121094 205.207031 83.375 205.738281 83.375 L 206.484375 83.375 C 206.972656 83.375 207.292969 83.121094 207.292969 82.605469 L 207.292969 70.550781 C 207.355469 67.046875 210.273438 64.3125 213.746094 64.3125 C 217.601563 64.3125 219.984375 67.195313 220.21875 70.746094 L 220.21875 82.5625 C 220.21875 83.140625 220.410156 83.375 221.007813 83.375 L 221.753906 83.375 C 222.242188 83.375 222.5625 83.121094 222.5625 82.542969 L 222.5625 70.808594 C 222.5625 65.914063 218.941406 61.960938 214.085938 61.960938 C 211.191406 61.960938 208.589844 63.519531 207.292969 65.742188 L 207.292969 53.796875 C 207.292969 52.683594 207.230469 51.636719 206.375 51.636719 L 205.714844 51.636719 C 205.183594 51.636719 204.929688 51.894531 204.929688 52.429688 Z M 245.808594 63.285156 L 245.808594 82.628906 C 245.808594 83.121094 245.464844 83.398438 244.933594 83.398438 L 244.253906 83.398438 C 243.679688 83.398438 243.402344 83.121094 243.402344 82.542969 L 243.402344 78.824219 C 242.378906 81.988281 239.3125 83.847656 235.648438 83.847656 C 229.855469 83.847656 225.40625 78.996094 225.40625 72.945313 C 225.40625 66.875 229.792969 61.980469 235.648438 61.980469 C 239.398438 61.980469 242.550781 64.035156 243.402344 66.941406 L 243.484375 63.285156 C 243.507813 62.707031 243.742188 62.410156 244.316406 62.410156 L 244.933594 62.410156 C 245.445313 62.410156 245.808594 62.707031 245.808594 63.285156 Z M 243.378906 72.96875 C 243.378906 68.289063 240.207031 64.375 235.648438 64.375 C 231.070313 64.375 227.8125 68.265625 227.8125 72.945313 C 227.8125 77.628906 231.113281 81.453125 235.648438 81.453125 C 240.164063 81.453125 243.378906 77.691406 243.378906 72.96875 Z M 243.378906 72.96875 "/>
</clipPath>
<clipPath id="clip5">
  <path d="M 147 89 L 301 89 L 301 113 L 147 113 Z M 147 89 "/>
</clipPath>
<clipPath id="clip6">
  <path d="M 160.148438 100.980469 L 162.164063 100.980469 C 162.183594 100.019531 162.046875 99.183594 161.746094 98.480469 C 161.449219 97.773438 161.023438 97.1875 160.46875 96.714844 C 159.914063 96.246094 159.253906 95.898438 158.488281 95.675781 C 157.722656 95.449219 156.890625 95.335938 155.996094 95.335938 C 154.589844 95.335938 153.335938 95.652344 152.226563 96.285156 C 151.121094 96.914063 150.183594 97.730469 149.417969 98.734375 C 148.648438 99.742188 148.0625 100.882813 147.660156 102.167969 C 147.253906 103.449219 147.054688 104.730469 147.054688 106.011719 C 147.054688 108.066406 147.601563 109.710938 148.699219 110.949219 C 149.792969 112.191406 151.363281 112.808594 153.410156 112.808594 C 155.410156 112.808594 157.039063 112.324219 158.296875 111.351563 C 159.554688 110.378906 160.492188 108.929688 161.109375 107.007813 L 159.09375 107.007813 C 158.667969 108.226563 157.992188 109.21875 157.066406 109.988281 C 156.140625 110.757813 155.007813 111.144531 153.664063 111.144531 C 152.878906 111.144531 152.195313 111.015625 151.621094 110.757813 C 151.046875 110.5 150.566406 110.144531 150.183594 109.683594 C 149.800781 109.222656 149.519531 108.679688 149.335938 108.050781 C 149.15625 107.417969 149.066406 106.738281 149.066406 106.011719 C 149.066406 104.945313 149.210938 103.875 149.496094 102.808594 C 149.785156 101.738281 150.226563 100.777344 150.820313 99.921875 C 151.417969 99.066406 152.160156 98.371094 153.042969 97.839844 C 153.925781 97.304688 154.976563 97.035156 156.1875 97.035156 C 156.785156 97.035156 157.332031 97.128906 157.832031 97.308594 C 158.335938 97.492188 158.761719 97.746094 159.113281 98.078125 C 159.464844 98.410156 159.734375 98.820313 159.925781 99.3125 C 160.117188 99.804688 160.191406 100.359375 160.148438 100.980469 Z M 170.035156 89.46875 L 165.148438 112.359375 L 167.128906 112.359375 L 168.949219 103.867188 C 169.160156 102.816406 169.480469 101.871094 169.90625 101.027344 C 170.332031 100.183594 170.832031 99.46875 171.40625 98.878906 C 171.984375 98.292969 172.609375 97.839844 173.292969 97.515625 C 173.972656 97.195313 174.675781 97.035156 175.402344 97.035156 C 175.847656 97.035156 176.277344 97.089844 176.695313 97.195313 C 177.109375 97.304688 177.476563 97.476563 177.796875 97.710938 C 178.117188 97.945313 178.371094 98.25 178.5625 98.625 C 178.753906 98.996094 178.851563 99.460938 178.851563 100.019531 C 178.851563 100.296875 178.828125 100.578125 178.785156 100.867188 C 178.742188 101.15625 178.691406 101.429688 178.625 101.683594 L 176.328125 112.359375 L 178.339844 112.359375 L 180.605469 101.75 C 180.777344 100.894531 180.863281 100.242188 180.863281 99.792969 C 180.863281 99.003906 180.742188 98.324219 180.496094 97.757813 C 180.25 97.191406 179.90625 96.730469 179.457031 96.378906 C 179.011719 96.027344 178.484375 95.765625 177.875 95.59375 C 177.269531 95.421875 176.605469 95.335938 175.878906 95.335938 C 174.644531 95.335938 173.515625 95.675781 172.492188 96.347656 C 171.472656 97.019531 170.671875 97.847656 170.097656 98.832031 L 170.035156 98.832031 L 172.046875 89.46875 Z M 198.476563 102.9375 C 198.476563 102.699219 198.484375 102.480469 198.492188 102.277344 C 198.503906 102.074219 198.507813 101.867188 198.507813 101.652344 C 198.507813 100.242188 198.109375 99.121094 197.3125 98.285156 C 196.511719 97.453125 195.410156 97.035156 194.003906 97.035156 C 193.175781 97.035156 192.414063 97.203125 191.722656 97.535156 C 191.03125 97.863281 190.410156 98.304688 189.867188 98.847656 C 189.324219 99.394531 188.875 100.019531 188.511719 100.722656 C 188.148438 101.429688 187.882813 102.167969 187.710938 102.9375 Z M 187.457031 104.632813 C 187.394531 105.019531 187.359375 105.445313 187.359375 105.917969 C 187.359375 106.664063 187.457031 107.359375 187.648438 108 C 187.839844 108.640625 188.132813 109.191406 188.527344 109.652344 C 188.921875 110.113281 189.421875 110.476563 190.027344 110.742188 C 190.636719 111.007813 191.34375 111.144531 192.152344 111.144531 C 193.496094 111.144531 194.632813 110.761719 195.570313 110.003906 C 196.507813 109.246094 197.167969 108.257813 197.550781 107.039063 L 199.5625 107.039063 C 199.011719 108.921875 198.117188 110.351563 196.878906 111.335938 C 195.644531 112.316406 194.039063 112.808594 192.058594 112.808594 C 189.863281 112.808594 188.195313 112.191406 187.058594 110.949219 C 185.917969 109.710938 185.347656 108 185.347656 105.820313 C 185.347656 104.496094 185.546875 103.207031 185.941406 101.957031 C 186.332031 100.707031 186.914063 99.589844 187.679688 98.609375 C 188.449219 97.625 189.382813 96.832031 190.492188 96.234375 C 191.597656 95.636719 192.855469 95.335938 194.261719 95.335938 C 195.261719 95.335938 196.144531 95.492188 196.914063 95.800781 C 197.679688 96.113281 198.332031 96.550781 198.875 97.117188 C 199.417969 97.683594 199.828125 98.363281 200.105469 99.152344 C 200.382813 99.945313 200.523438 100.820313 200.523438 101.78125 C 200.523438 102.25 200.511719 102.722656 200.488281 103.191406 C 200.46875 103.664063 200.425781 104.144531 200.363281 104.632813 Z M 206.957031 95.820313 L 203.441406 112.359375 L 205.421875 112.359375 L 207.210938 103.960938 C 207.425781 103 207.726563 102.097656 208.121094 101.253906 C 208.515625 100.410156 208.980469 99.675781 209.511719 99.054688 C 210.042969 98.4375 210.640625 97.945313 211.300781 97.582031 C 211.960938 97.21875 212.652344 97.035156 213.378906 97.035156 C 214.355469 97.035156 215.066406 97.324219 215.5 97.902344 C 215.9375 98.480469 216.15625 99.175781 216.15625 99.984375 C 216.15625 100.5 216.09375 101.035156 215.964844 101.589844 L 213.664063 112.359375 L 215.675781 112.359375 L 217.304688 104.730469 C 217.539063 103.664063 217.816406 102.664063 218.136719 101.734375 C 218.457031 100.804688 218.855469 99.992188 219.335938 99.296875 C 219.8125 98.601563 220.378906 98.050781 221.027344 97.644531 C 221.675781 97.238281 222.4375 97.035156 223.3125 97.035156 C 224.398438 97.035156 225.191406 97.304688 225.691406 97.839844 C 226.191406 98.371094 226.441406 99.046875 226.441406 99.859375 C 226.441406 100.390625 226.378906 100.949219 226.25 101.523438 L 223.917969 112.359375 L 225.929688 112.359375 L 228.230469 101.589844 C 228.292969 101.246094 228.347656 100.921875 228.390625 100.609375 C 228.433594 100.300781 228.453125 99.996094 228.453125 99.699219 C 228.453125 98.414063 228.09375 97.367188 227.367188 96.554688 C 226.644531 95.742188 225.484375 95.335938 223.886719 95.335938 C 222.652344 95.335938 221.539063 95.667969 220.546875 96.332031 C 219.558594 96.992188 218.742188 97.839844 218.105469 98.863281 L 218.039063 98.863281 C 217.933594 97.6875 217.53125 96.808594 216.828125 96.21875 C 216.125 95.632813 215.199219 95.335938 214.046875 95.335938 C 212.8125 95.335938 211.683594 95.667969 210.660156 96.332031 C 209.640625 96.992188 208.832031 97.804688 208.234375 98.769531 L 208.171875 98.703125 L 208.808594 95.820313 Z M 237.21875 89.46875 L 236.519531 92.707031 L 238.53125 92.707031 L 239.234375 89.46875 Z M 235.847656 95.820313 L 232.332031 112.359375 L 234.3125 112.359375 L 237.859375 95.820313 Z M 254.386719 100.980469 L 256.402344 100.980469 C 256.421875 100.019531 256.285156 99.183594 255.984375 98.480469 C 255.6875 97.773438 255.261719 97.1875 254.707031 96.714844 C 254.152344 96.246094 253.492188 95.898438 252.726563 95.675781 C 251.960938 95.449219 251.128906 95.335938 250.234375 95.335938 C 248.828125 95.335938 247.574219 95.652344 246.464844 96.285156 C 245.359375 96.914063 244.421875 97.730469 243.65625 98.734375 C 242.886719 99.742188 242.304688 100.882813 241.898438 102.167969 C 241.492188 103.449219 241.292969 104.730469 241.292969 106.011719 C 241.292969 108.066406 241.839844 109.710938 242.9375 110.949219 C 244.03125 112.191406 245.605469 112.808594 247.648438 112.808594 C 249.648438 112.808594 251.277344 112.324219 252.535156 111.351563 C 253.792969 110.378906 254.730469 108.929688 255.347656 107.007813 L 253.335938 107.007813 C 252.90625 108.226563 252.230469 109.21875 251.304688 109.988281 C 250.378906 110.757813 249.246094 111.144531 247.902344 111.144531 C 247.117188 111.144531 246.433594 111.015625 245.859375 110.757813 C 245.285156 110.5 244.804688 110.144531 244.421875 109.683594 C 244.039063 109.222656 243.757813 108.679688 243.574219 108.050781 C 243.394531 107.417969 243.304688 106.738281 243.304688 106.011719 C 243.304688 104.945313 243.449219 103.875 243.734375 102.808594 C 244.023438 101.738281 244.464844 100.777344 245.0625 99.921875 C 245.65625 99.066406 246.398438 98.371094 247.28125 97.839844 C 248.164063 97.304688 249.214844 97.035156 250.425781 97.035156 C 251.023438 97.035156 251.570313 97.128906 252.070313 97.308594 C 252.574219 97.492188 253 97.746094 253.351563 98.078125 C 253.703125 98.410156 253.972656 98.820313 254.164063 99.3125 C 254.355469 99.804688 254.429688 100.359375 254.386719 100.980469 Z M 261.683594 100.753906 C 261.8125 99.816406 262.085938 99.003906 262.5 98.320313 C 262.914063 97.636719 263.429688 97.074219 264.046875 96.636719 C 264.667969 96.199219 265.367188 95.871094 266.15625 95.65625 C 266.945313 95.445313 267.777344 95.335938 268.648438 95.335938 C 269.203125 95.335938 269.816406 95.390625 270.484375 95.496094 C 271.15625 95.605469 271.777344 95.796875 272.355469 96.074219 C 272.929688 96.351563 273.410156 96.726563 273.792969 97.195313 C 274.175781 97.667969 274.367188 98.277344 274.367188 99.023438 C 274.367188 99.429688 274.328125 99.878906 274.253906 100.371094 C 274.179688 100.863281 274.089844 101.359375 273.984375 101.863281 C 273.875 102.363281 273.765625 102.855469 273.648438 103.335938 C 273.53125 103.816406 273.429688 104.238281 273.34375 104.601563 C 273.152344 105.523438 272.988281 106.285156 272.847656 106.894531 C 272.710938 107.503906 272.597656 108.011719 272.515625 108.417969 C 272.429688 108.824219 272.363281 109.15625 272.320313 109.410156 C 272.28125 109.667969 272.257813 109.925781 272.257813 110.179688 C 272.257813 110.480469 272.375 110.667969 272.609375 110.742188 C 272.84375 110.816406 273.078125 110.855469 273.3125 110.855469 C 273.460938 110.855469 273.59375 110.847656 273.710938 110.839844 C 273.828125 110.828125 273.960938 110.8125 274.109375 110.789063 L 273.824219 112.359375 C 273.292969 112.46875 272.738281 112.519531 272.164063 112.519531 C 271.035156 112.519531 270.449219 111.933594 270.40625 110.757813 C 270.40625 110.609375 270.410156 110.457031 270.421875 110.308594 C 270.433594 110.160156 270.449219 110.011719 270.46875 109.859375 L 270.40625 109.796875 C 269.832031 110.757813 269.019531 111.5 267.976563 112.023438 C 266.933594 112.546875 265.835938 112.808594 264.6875 112.808594 C 263.921875 112.808594 263.21875 112.722656 262.578125 112.554688 C 261.941406 112.382813 261.390625 112.113281 260.933594 111.75 C 260.476563 111.386719 260.113281 110.917969 259.847656 110.339844 C 259.582031 109.765625 259.449219 109.070313 259.449219 108.257813 C 259.449219 107.382813 259.601563 106.644531 259.910156 106.046875 C 260.222656 105.445313 260.640625 104.957031 261.175781 104.570313 C 261.707031 104.1875 262.3125 103.882813 262.996094 103.65625 C 263.675781 103.433594 264.390625 103.257813 265.136719 103.128906 C 266.222656 102.957031 267.207031 102.875 268.089844 102.886719 C 268.972656 102.898438 269.734375 102.816406 270.375 102.648438 C 271.035156 102.476563 271.527344 102.167969 271.859375 101.71875 C 272.1875 101.269531 272.355469 100.5 272.355469 99.410156 C 272.355469 98.917969 272.242188 98.515625 272.019531 98.207031 C 271.796875 97.898438 271.519531 97.65625 271.1875 97.484375 C 270.859375 97.316406 270.484375 97.195313 270.070313 97.132813 C 269.65625 97.070313 269.253906 97.035156 268.871094 97.035156 C 268.234375 97.035156 267.625 97.101563 267.050781 97.230469 C 266.476563 97.355469 265.953125 97.566406 265.484375 97.855469 C 265.019531 98.144531 264.628906 98.527344 264.320313 99.007813 C 264.011719 99.488281 263.804688 100.070313 263.699219 100.753906 Z M 271.652344 103.511719 L 271.585938 103.449219 C 271.417969 103.640625 271.175781 103.796875 270.867188 103.914063 C 270.558594 104.03125 270.234375 104.121094 269.894531 104.1875 C 269.554688 104.25 269.207031 104.292969 268.855469 104.3125 C 268.503906 104.335938 268.203125 104.355469 267.945313 104.378906 C 267.328125 104.421875 266.640625 104.480469 265.886719 104.554688 C 265.128906 104.628906 264.421875 104.789063 263.761719 105.035156 C 263.101563 105.28125 262.546875 105.644531 262.101563 106.125 C 261.652344 106.605469 261.429688 107.285156 261.429688 108.160156 C 261.429688 108.695313 261.53125 109.148438 261.734375 109.523438 C 261.933594 109.898438 262.207031 110.207031 262.546875 110.453125 C 262.886719 110.699219 263.28125 110.875 263.730469 110.980469 C 264.175781 111.089844 264.632813 111.144531 265.101563 111.144531 C 266.722656 111.144531 268.03125 110.703125 269.03125 109.828125 C 270.03125 108.953125 270.691406 107.777344 271.011719 106.300781 Z M 283.132813 89.46875 L 278.246094 112.359375 L 280.226563 112.359375 L 285.144531 89.46875 Z M 288.738281 106.976563 L 286.757813 106.976563 C 286.714844 108.023438 286.863281 108.914063 287.203125 109.652344 C 287.542969 110.390625 288.003906 110.992188 288.578125 111.464844 C 289.152344 111.933594 289.816406 112.277344 290.574219 112.488281 C 291.328125 112.703125 292.113281 112.808594 292.921875 112.808594 C 293.710938 112.808594 294.496094 112.722656 295.285156 112.554688 C 296.074219 112.382813 296.785156 112.097656 297.425781 111.703125 C 298.0625 111.308594 298.582031 110.789063 298.972656 110.148438 C 299.367188 109.507813 299.566406 108.71875 299.566406 107.777344 C 299.566406 107.007813 299.390625 106.367188 299.039063 105.851563 C 298.6875 105.339844 298.25 104.902344 297.730469 104.539063 C 297.207031 104.175781 296.632813 103.871094 296.003906 103.625 C 295.375 103.378906 294.773438 103.136719 294.199219 102.902344 C 293.730469 102.710938 293.289063 102.519531 292.875 102.328125 C 292.457031 102.132813 292.089844 101.921875 291.769531 101.683594 C 291.453125 101.449219 291.195313 101.183594 291.003906 100.882813 C 290.8125 100.585938 290.71875 100.242188 290.71875 99.859375 C 290.71875 99.28125 290.851563 98.8125 291.117188 98.449219 C 291.382813 98.082031 291.710938 97.800781 292.105469 97.597656 C 292.5 97.394531 292.9375 97.25 293.417969 97.164063 C 293.894531 97.078125 294.359375 97.035156 294.804688 97.035156 C 295.359375 97.035156 295.882813 97.105469 296.371094 97.246094 C 296.859375 97.382813 297.28125 97.601563 297.632813 97.902344 C 297.984375 98.203125 298.257813 98.574219 298.449219 99.023438 C 298.640625 99.472656 298.714844 100.019531 298.671875 100.660156 L 300.683594 100.660156 C 300.703125 99.699219 300.570313 98.878906 300.285156 98.207031 C 299.996094 97.535156 299.59375 96.984375 299.070313 96.554688 C 298.546875 96.128906 297.925781 95.820313 297.203125 95.625 C 296.476563 95.433594 295.679688 95.335938 294.804688 95.335938 C 294.144531 95.335938 293.453125 95.421875 292.730469 95.59375 C 292.003906 95.765625 291.34375 96.03125 290.75 96.394531 C 290.152344 96.757813 289.664063 97.222656 289.28125 97.789063 C 288.894531 98.355469 288.703125 99.046875 288.703125 99.859375 C 288.703125 100.542969 288.832031 101.125 289.089844 101.605469 C 289.34375 102.085938 289.679688 102.503906 290.09375 102.855469 C 290.507813 103.207031 290.984375 103.507813 291.515625 103.753906 C 292.046875 104 292.582031 104.230469 293.113281 104.441406 C 293.644531 104.65625 294.175781 104.863281 294.710938 105.066406 C 295.242188 105.269531 295.714844 105.503906 296.132813 105.773438 C 296.546875 106.039063 296.886719 106.355469 297.152344 106.71875 C 297.421875 107.082031 297.554688 107.542969 297.554688 108.097656 C 297.554688 108.632813 297.421875 109.089844 297.152344 109.476563 C 296.886719 109.859375 296.550781 110.175781 296.148438 110.421875 C 295.742188 110.667969 295.296875 110.847656 294.804688 110.964844 C 294.316406 111.082031 293.847656 111.144531 293.402344 111.144531 C 292.824219 111.144531 292.253906 111.078125 291.691406 110.949219 C 291.128906 110.820313 290.625 110.597656 290.191406 110.277344 C 289.753906 109.957031 289.402344 109.527344 289.136719 108.996094 C 288.871094 108.460938 288.738281 107.789063 288.738281 106.976563 Z M 288.738281 106.976563 "/>
</clipPath>
</defs>
<g id="surface1">
<rect x="0" y="0" width="332" height="169" style="fill:rgb(100%,100%,100%);fill-opacity:1;stroke:none;"/>
<rect x="0" y="0" width="332" height="169" style="fill:rgb(100%,100%,100%);fill-opacity:1;stroke:none;"/>
<g clip-path="url(#clip1)" clip-rule="nonzero">
<g clip-path="url(#clip2)" clip-rule="evenodd">
<path style=" stroke:none;fill-rule:nonzero;fill:rgb(0%,52.549744%,63.137817%);fill-opacity:1;" d="M 26 154 L 142.4375 154 L 142.4375 15.242188 L 26 15.242188 Z M 26 154 "/>
</g>
</g>
<g clip-path="url(#clip3)" clip-rule="nonzero">
<g clip-path="url(#clip4)" clip-rule="evenodd">
<path style=" stroke:none;fill-rule:nonzero;fill:rgb(19.999695%,19.999695%,19.999695%);fill-opacity:1;" d="M 143.4375 96.648438 L 250.808594 96.648438 L 250.808594 46.617188 L 143.4375 46.617188 Z M 143.4375 96.648438 "/>
</g>
</g>
<path style="fill:none;stroke-width:3.04;stroke-linecap:butt;stroke-linejoin:miter;stroke:rgb(19.999695%,19.999695%,19.999695%);stroke-opacity:1;stroke-miterlimit:10;" d="M 20.402744 11.668756 L 20.402744 31.012506 C 20.402744 31.504694 20.058994 31.782038 19.527744 31.782038 L 18.848056 31.782038 C 18.269931 31.782038 17.996494 31.504694 17.996494 30.926569 L 17.996494 27.207819 C 16.973056 30.371881 13.90665 32.231256 10.242587 32.231256 C 4.449619 32.231256 0.0004 27.379694 0.0004 21.328913 C 0.0004 15.2586 4.387119 10.364069 10.242587 10.364069 C 13.992587 10.364069 17.144931 12.418756 17.996494 15.325006 L 18.078525 11.668756 C 18.101962 11.090631 18.336337 10.793756 18.910556 10.793756 L 19.527744 10.793756 C 20.039462 10.793756 20.402744 11.090631 20.402744 11.668756 Z M 17.973056 21.35235 C 17.973056 16.672663 14.801181 12.7586 10.242587 12.7586 C 5.664462 12.7586 2.40665 16.649225 2.40665 21.328913 C 2.40665 26.012506 5.707431 29.836725 10.242587 29.836725 C 14.758212 29.836725 17.973056 26.075006 17.973056 21.35235 Z M 25.355869 30.969538 C 25.355869 31.481256 25.629306 31.739069 26.183994 31.739069 L 26.930087 31.739069 C 27.461337 31.739069 27.71915 31.481256 27.71915 30.969538 L 27.71915 3.184381 C 27.71915 2.328913 27.676181 1.473444 27.609775 0.770319 C 27.547275 0.278131 27.336337 0.0007875 26.824619 0.0007875 L 26.164462 0.0007875 C 25.672275 0.0007875 25.355869 0.278131 25.355869 0.770319 Z M 32.734775 39.1961 L 32.734775 11.53985 C 32.734775 10.965631 33.03165 10.66485 33.629306 10.66485 L 34.266025 10.66485 C 34.887119 10.66485 35.203525 10.965631 35.203525 11.53985 L 35.203525 14.211725 C 35.949619 12.950006 37.973056 10.172663 42.976962 10.172663 C 48.535556 10.172663 52.988681 15.024225 52.988681 21.094538 C 52.988681 27.145319 48.535556 32.016413 42.976962 32.016413 C 39.039462 32.016413 36.504306 29.813288 35.203525 27.078913 L 35.203525 39.1961 C 35.203525 39.711725 34.887119 40.032038 34.289462 40.032038 L 33.672275 40.032038 C 33.074619 40.032038 32.734775 39.711725 32.734775 39.1961 Z M 35.055087 21.075006 C 35.055087 25.774225 38.613681 29.621881 42.808994 29.621881 C 47.023837 29.621881 50.516025 25.774225 50.516025 21.075006 C 50.516025 16.371881 47.023837 12.524225 42.808994 12.524225 C 38.613681 12.524225 35.055087 16.371881 35.055087 21.075006 Z M 56.492587 30.989069 C 56.492587 31.504694 56.769931 31.7586 57.301181 31.7586 L 58.047275 31.7586 C 58.535556 31.7586 58.855869 31.504694 58.855869 30.989069 L 58.855869 18.934381 C 58.918369 15.430475 61.836337 12.6961 65.308994 12.6961 C 69.164462 12.6961 71.547275 15.578913 71.78165 19.129694 L 71.78165 30.9461 C 71.78165 31.524225 71.973056 31.7586 72.570712 31.7586 L 73.316806 31.7586 C 73.805087 31.7586 74.1254 31.504694 74.1254 30.926569 L 74.1254 19.192194 C 74.1254 14.297663 70.504306 10.344538 65.648837 10.344538 C 62.754306 10.344538 60.152744 11.903131 58.855869 14.125788 L 58.855869 2.180475 C 58.855869 1.067194 58.793369 0.0203188 57.9379 0.0203188 L 57.277744 0.0203188 C 56.746494 0.0203188 56.492587 0.278131 56.492587 0.813288 Z M 97.371494 11.668756 L 97.371494 31.012506 C 97.371494 31.504694 97.027744 31.782038 96.496494 31.782038 L 95.816806 31.782038 C 95.242587 31.782038 94.965244 31.504694 94.965244 30.926569 L 94.965244 27.207819 C 93.941806 30.371881 90.8754 32.231256 87.211337 32.231256 C 81.418369 32.231256 76.96915 27.379694 76.96915 21.328913 C 76.96915 15.2586 81.355869 10.364069 87.211337 10.364069 C 90.961337 10.364069 94.113681 12.418756 94.965244 15.325006 L 95.047275 11.668756 C 95.070712 11.090631 95.305087 10.793756 95.879306 10.793756 L 96.496494 10.793756 C 97.008212 10.793756 97.371494 11.090631 97.371494 11.668756 Z M 94.941806 21.35235 C 94.941806 16.672663 91.769931 12.7586 87.211337 12.7586 C 82.633212 12.7586 79.3754 16.649225 79.3754 21.328913 C 79.3754 26.012506 82.676181 29.836725 87.211337 29.836725 C 91.726962 29.836725 94.941806 26.075006 94.941806 21.35235 Z M 94.941806 21.35235 " transform="matrix(1,0,0,1,148.4371,51.6164)"/>
<g clip-path="url(#clip5)" clip-rule="nonzero">
<g clip-path="url(#clip6)" clip-rule="evenodd">
<path style=" stroke:none;fill-rule:nonzero;fill:rgb(19.999695%,19.999695%,19.999695%);fill-opacity:1;" d="M 142.054688 117.808594 L 305.6875 117.808594 L 305.6875 84.46875 L 142.054688 84.46875 Z M 142.054688 117.808594 "/>
</g>
</g>
</g>
</svg>
